<svg width="161" height="165" viewBox="0 0 161 165" fill="none" xmlns="http://www.w3.org/2000/svg">
<path d="M95.5408 46.108L99.6913 59.8047L89.1074 56.0692L94.7106 64.1626L87.4473 82.6324L58.0825 53.1638L63.1669 71.0001L54.8658 64.5777L32.8683 74.5389L43.2444 73.5014L24.1304 80.837C24.7401 81.1854 25.4454 81.3855 26.1978 81.3855H56.6538V111.841C56.6538 114.146 58.5222 116.015 60.8273 116.015H98.6574C100.962 116.015 102.831 114.146 102.831 111.841V81.3855H133.287C134.763 81.3855 136.06 80.618 136.802 79.4612L95.5408 46.108Z" fill="#141E39"/>
<path d="M95.8163 26.5446C94.8839 30.7927 91.7755 30.8962 89.1852 32.1396C86.595 33.3829 86.1807 37.1129 86.1807 37.1129C84.5228 30.5855 93.2261 23.7472 93.2261 23.7472C87.2167 25.6122 85.5589 31.3107 85.5589 31.3107C85.5589 31.3107 85.1551 25.9229 87.6311 23.4363C91.5614 19.4894 99.0283 20.5353 99.0283 20.5353C97.4742 21.0533 96.7489 22.2966 95.8163 26.5446ZM83.5442 27.1673C83.5442 27.1673 80.7026 17.3992 70.4018 14.2025C70.4018 14.2025 85.3202 25.924 82.4786 37.1129C82.4786 37.1129 81.7682 30.7193 77.3282 28.588C72.8882 26.4569 67.5602 26.2792 65.9618 18.9976C64.3635 11.716 63.1202 9.58487 60.4562 8.69687C60.4562 8.69687 73.2554 6.90419 79.9922 13.6696C84.2366 17.932 83.5442 27.1673 83.5442 27.1673ZM133.287 35.2084H102.831V4.75243C102.831 2.44751 100.962 0.578882 98.6573 0.578882H60.8272C58.5223 0.578882 56.6537 2.44751 56.6537 4.75243V35.2084H26.1977C23.8928 35.2084 22.0242 37.077 22.0242 39.3819V74.6071L57.1485 46.7306L67.9399 55.8617L94.2956 37.1129L137.46 73.4537V39.3819C137.46 37.077 135.592 35.2084 133.287 35.2084Z" fill="#377E23"/>
<path d="M7.71903 133.299C8.19122 132.818 8.76365 132.45 9.43631 132.195C10.1082 131.941 10.8534 131.814 11.6713 131.814C12.5977 131.814 13.4382 131.991 14.1923 132.345C14.9459 132.699 15.6505 133.231 16.3047 133.939L19.7389 130.832C18.8122 129.706 17.64 128.843 16.2229 128.243C14.8055 127.643 13.1975 127.344 11.3986 127.344C9.85393 127.344 8.43194 127.585 7.13302 128.066C5.83373 128.547 4.71136 129.234 3.7668 130.124C2.82189 131.014 2.08596 132.064 1.55922 133.272C1.03193 134.48 0.768555 135.811 0.768555 137.265C0.768555 138.719 1.03193 140.049 1.55922 141.258C2.08596 142.466 2.81717 143.516 3.75321 144.406C4.68888 145.296 5.80183 145.983 7.09223 146.464C8.38191 146.945 9.78107 147.186 11.2895 147.186C12.6702 147.186 14.0786 146.977 15.5142 146.559C16.9494 146.141 18.2126 145.542 19.3027 144.76V136.856H14.533V142.089C14.3416 142.178 14.1509 142.255 13.9608 142.321C13.1975 142.584 12.4161 142.716 11.6167 142.716C10.8168 142.716 10.0856 142.584 9.42235 142.321C8.75893 142.057 8.19122 141.685 7.71903 141.203C7.2463 140.722 6.87834 140.145 6.61497 139.473C6.3516 138.801 6.21982 138.064 6.21982 137.265C6.21982 136.429 6.3516 135.68 6.61497 135.016C6.87834 134.353 7.2463 133.781 7.71903 133.299Z" fill="#141E39"/>
<path d="M29.0376 139.118L31.4859 133.018L33.9342 139.118H29.0376ZM28.8694 127.725L20.4473 146.804H25.9531L27.4407 143.097H35.5311L37.0188 146.804H42.6337L34.1842 127.725H28.8694Z" fill="#141E39"/>
<path d="M55.0757 132.713C55.6298 133.204 55.9072 133.894 55.9072 134.784C55.9072 135.657 55.6298 136.338 55.0757 136.829C54.5211 137.319 53.6811 137.565 52.5546 137.565H49.5565V131.977H52.5546C53.6811 131.977 54.5211 132.222 55.0757 132.713ZM60.3225 138.505C61.013 137.46 61.3581 136.22 61.3581 134.784C61.3581 133.331 61.013 132.073 60.3225 131.009C59.6317 129.946 58.6551 129.134 57.3924 128.57C56.1292 128.007 54.626 127.725 52.8817 127.725H44.1598V146.804H49.5565V141.734H52.5024L55.9617 146.804H61.7398L57.6167 140.796C58.7697 140.248 59.6738 139.486 60.3225 138.505Z" fill="#141E39"/>
<path d="M64.3287 146.804H69.7255V127.725H64.3287V146.804Z" fill="#141E39"/>
<path d="M85.5474 142.43C85.0656 142.748 84.3618 142.907 83.435 142.907H78.9105V139.036H83.435C84.3618 139.036 85.0656 139.195 85.5474 139.513C86.0285 139.831 86.2695 140.318 86.2695 140.972C86.2695 141.625 86.0285 142.112 85.5474 142.43ZM82.6175 131.623C83.5256 131.623 84.207 131.773 84.6616 132.072C85.1155 132.372 85.3428 132.831 85.3428 133.449C85.3428 134.067 85.1155 134.53 84.6616 134.839C84.207 135.148 83.5256 135.302 82.6175 135.302H78.9105V131.623H82.6175ZM88.5591 136.978C88.4452 136.932 88.3285 136.889 88.2101 136.847C88.9676 136.443 89.5707 135.923 90.0173 135.289C90.5354 134.553 90.794 133.694 90.794 132.713C90.794 131.223 90.1763 130.019 88.9408 129.102C87.7048 128.184 85.8334 127.725 83.3259 127.725H73.5684V146.804H83.8711C86.4332 146.804 88.3822 146.346 89.7175 145.428C91.0529 144.51 91.721 143.225 91.721 141.571C91.721 140.463 91.4437 139.523 90.8897 138.75C90.3349 137.978 89.5582 137.387 88.5591 136.978Z" fill="#141E39"/>
<path d="M100.829 139.118L103.277 133.018L105.725 139.118H100.829ZM100.661 127.725L92.2385 146.804H97.7443L99.232 143.097H107.322L108.81 146.804H114.425L105.976 127.725H100.661Z" fill="#141E39"/>
<path d="M121.348 127.725H115.951V146.804H130.451V142.525H121.348V127.725Z" fill="#141E39"/>
<path d="M146.123 140.086C145.669 140.876 145.037 141.476 144.229 141.885C143.42 142.294 142.471 142.498 141.381 142.498H137.974V132.032H141.381C142.471 132.032 143.42 132.236 144.229 132.645C145.037 133.054 145.669 133.649 146.123 134.43C146.577 135.211 146.804 136.157 146.804 137.265C146.804 138.355 146.577 139.295 146.123 140.086ZM147.159 128.897C145.56 128.116 143.706 127.725 141.599 127.725H132.577V146.804H141.599C143.706 146.804 145.56 146.414 147.159 145.632C148.758 144.851 150.007 143.747 150.907 142.321C151.806 140.895 152.256 139.209 152.256 137.265C152.256 135.302 151.806 133.612 150.907 132.195C150.007 130.778 148.758 129.679 147.159 128.897Z" fill="#141E39"/>
<path d="M155.09 146.804H160.487V127.725H155.09V146.804Z" fill="#141E39"/>
<path d="M7.08929 158.09C6.75704 158.384 6.25368 158.531 5.57866 158.531H3.78236V155.183H5.57866C6.25368 155.183 6.75704 155.33 7.08929 155.624C7.42137 155.918 7.5874 156.332 7.5874 156.865C7.5874 157.388 7.42137 157.796 7.08929 158.09ZM8.4774 153.142C7.72063 152.804 6.81994 152.635 5.77478 152.635H0.548828V164.067H3.78236V161.078H5.77478C6.81994 161.078 7.72063 160.907 8.4774 160.564C9.23398 160.221 9.81928 159.734 10.2331 159.102C10.6467 158.471 10.8537 157.725 10.8537 156.865C10.8537 155.994 10.6467 155.24 10.2331 154.603C9.81928 153.966 9.23398 153.479 8.4774 153.142Z" fill="#141E39"/>
<path d="M28.5565 156.93H24.1473V152.635H20.9136V164.067H24.1473V159.609H28.5565V164.067H31.79V152.635H28.5565V156.93Z" fill="#141E39"/>
<path d="M46.3438 159.462L47.8107 155.806L49.2777 159.462H46.3438ZM46.2428 152.635L41.1967 164.067H44.4956L45.3869 161.846H50.2345L51.126 164.067H54.49L49.4276 152.635H46.2428Z" fill="#141E39"/>
<path d="M70.4373 155.624C70.7691 155.918 70.9354 156.332 70.9354 156.865C70.9354 157.388 70.7691 157.796 70.4373 158.09C70.105 158.384 69.6016 158.531 68.9266 158.531H67.1303V155.183H68.9266C69.6016 155.183 70.105 155.33 70.4373 155.624ZM73.5811 159.094C73.9945 158.468 74.2015 157.725 74.2015 156.865C74.2015 155.994 73.9945 155.24 73.5811 154.603C73.1671 153.966 72.5819 153.479 71.8254 153.142C71.0684 152.804 70.1679 152.635 69.1226 152.635H63.8966V164.067H67.1303V161.029H68.8953L70.968 164.067H74.4301L71.9599 160.467C72.6506 160.139 73.1922 159.682 73.5811 159.094Z" fill="#141E39"/>
<path d="M95.0724 152.635L91.1595 159.24L87.1355 152.635H84.4735V164.067H87.4622V158.171L90.3854 162.94H91.8224L94.7661 158.002L94.7947 164.067H97.7669L97.7344 152.635H95.0724Z" fill="#141E39"/>
<path d="M112.321 159.462L113.788 155.806L115.254 159.462H112.321ZM112.22 152.635L107.173 164.067H110.472L111.364 161.846H116.211L117.103 164.067H120.467L115.404 152.635H112.22Z" fill="#141E39"/>
<path d="M133.279 155.975C133.556 155.687 133.891 155.466 134.283 155.314C134.675 155.161 135.105 155.085 135.573 155.085C136.117 155.085 136.61 155.199 137.051 155.428C137.492 155.657 137.897 155.989 138.268 156.424L140.325 154.562C139.77 153.866 139.076 153.332 138.243 152.962C137.41 152.592 136.466 152.407 135.41 152.407C134.506 152.407 133.671 152.551 132.903 152.839C132.135 153.128 131.471 153.539 130.911 154.072C130.35 154.606 129.912 155.235 129.596 155.959C129.28 156.683 129.122 157.48 129.122 158.351C129.122 159.222 129.28 160.02 129.596 160.744C129.912 161.468 130.35 162.096 130.911 162.63C131.471 163.163 132.135 163.575 132.903 163.863C133.671 164.151 134.506 164.296 135.41 164.296C136.466 164.296 137.41 164.108 138.243 163.732C139.076 163.357 139.77 162.826 140.325 162.14L138.268 160.278C137.897 160.714 137.492 161.046 137.051 161.274C136.61 161.503 136.117 161.617 135.573 161.617C135.105 161.617 134.675 161.541 134.283 161.389C133.891 161.236 133.556 161.016 133.279 160.727C133.001 160.439 132.783 160.093 132.625 159.69C132.467 159.288 132.389 158.841 132.389 158.351C132.389 157.861 132.467 157.415 132.625 157.012C132.783 156.609 133.001 156.264 133.279 155.975Z" fill="#141E39"/>
<path d="M160.707 152.635H157.571L154.854 157.172L152.149 152.635H148.736L153.097 159.921V164.067H156.33V159.972L160.707 152.635Z" fill="#141E39"/>
</svg>
